<?xml version="1.0" encoding="utf-8"?>
<!-- Generator: Adobe Illustrator 15.0.2, SVG Export Plug-In . SVG Version: 6.00 Build 0)  -->
<!DOCTYPE svg PUBLIC "-//W3C//DTD SVG 1.1//EN" "http://www.w3.org/Graphics/SVG/1.1/DTD/svg11.dtd">
<svg version="1.1" id="Ebene_1" xmlns="http://www.w3.org/2000/svg" xmlns:xlink="http://www.w3.org/1999/xlink" x="0px" y="0px"
	 width="400px" height="400px" viewBox="0 0 400 400" enable-background="new 0 0 400 400" xml:space="preserve">
<g>
	<path fill="#D6002B" d="M185,258.521C185,274.25,174.304,287,161.08,287h-6.135C141.72,287,131,274.25,131,258.521V109.479
		C131,93.751,141.72,81,154.945,81h6.135C174.304,81,185,93.751,185,109.479V258.521z"/>
	<path fill="#D6002B" d="M269,258.521C269,274.25,258.779,287,245.557,287h-6.137c-13.225,0-24.42-12.75-24.42-28.479v-56.437
		C215,186.356,226.195,174,239.42,174h6.137C258.779,174,269,186.356,269,202.085V258.521z"/>
</g>
<g>
	<g>
		
			<rect x="-0.409" y="421" fill="none" stroke="#1D1D1B" stroke-width="1.1109" stroke-miterlimit="10" width="399.938" height="399.94"/>
		
			<rect x="399.529" y="421" fill="none" stroke="#1D1D1B" stroke-width="1.1109" stroke-miterlimit="10" width="248.738" height="399.94"/>
		
			<rect x="399.529" y="421" fill="none" stroke="#1D1D1B" stroke-width="1.1109" stroke-miterlimit="10" width="248.738" height="248.737"/>
		
			<rect x="497.066" y="669.737" fill="none" stroke="#1D1D1B" stroke-width="1.1109" stroke-miterlimit="10" width="151.201" height="151.203"/>
		
			<rect x="399.529" y="723.402" fill="none" stroke="#1D1D1B" stroke-width="1.1109" stroke-miterlimit="10" width="97.537" height="97.538"/>
		
			<rect x="399.529" y="669.737" fill="none" stroke="#1D1D1B" stroke-width="1.1109" stroke-miterlimit="10" width="53.667" height="53.665"/>
		
			<rect x="453.196" y="669.737" fill="none" stroke="#1D1D1B" stroke-width="1.1109" stroke-miterlimit="10" width="43.87" height="43.873"/>
		<path fill="none" stroke="#F6AA00" stroke-width="1.1109" stroke-miterlimit="10" d="M-0.409,820.94
			C-0.409,599.88,178.468,421,399.529,421"/>
		<path fill="none" stroke="#BD1622" stroke-width="1.1109" stroke-miterlimit="10" d="M648.268,669.737
			C648.268,532.253,537.014,421,399.529,421"/>
		<path fill="none" stroke="#E5332A" stroke-width="1.1109" stroke-miterlimit="10" d="M648.269,669.737
			c0,83.575-67.629,151.203-151.201,151.203"/>
		<path fill="none" stroke="#BD1622" stroke-width="1.1109" stroke-miterlimit="10" d="M399.529,723.402
			c0,53.913,43.626,97.538,97.537,97.538"/>
		<path fill="none" stroke="#BD1622" stroke-width="1.1109" stroke-miterlimit="10" d="M399.529,723.402
			c0-29.661,24.003-53.665,53.667-53.665"/>
		<path fill="none" stroke="#BD1622" stroke-width="1.1109" stroke-miterlimit="10" d="M497.066,713.61
			c0-24.248-19.624-43.873-43.87-43.873"/>
		<path fill="none" stroke="#009EE2" stroke-width="1.1109" stroke-miterlimit="10" d="M399.157,620.971
			c0,110.234-89.36,199.6-199.596,199.6c-110.238,0-199.6-89.364-199.6-199.6s89.362-199.599,199.6-199.599
			C309.797,421.372,399.157,510.734,399.157,620.971z"/>
		<circle fill="none" stroke="#009EE2" stroke-width="1.1109" stroke-miterlimit="10" cx="523.898" cy="545.367" r="124.369"/>
		<circle fill="none" stroke="#009EE2" stroke-width="1.1109" stroke-miterlimit="10" cx="572.667" cy="745.34" r="75.601"/>
		<circle fill="none" stroke="#009EE2" stroke-width="1.1109" stroke-miterlimit="10" cx="448.298" cy="772.172" r="48.769"/>
		<circle fill="none" stroke="#009EE2" stroke-width="1.1109" stroke-miterlimit="10" cx="426.363" cy="696.57" r="26.833"/>
		<circle fill="none" stroke="#009EE2" stroke-width="1.1109" stroke-miterlimit="10" cx="475.131" cy="691.673" r="21.935"/>
		
			<line fill="none" stroke="#99C33A" stroke-width="1.1109" stroke-miterlimit="10" x1="-0.409" y1="821.417" x2="400.009" y2="420.999"/>
		
			<line fill="none" stroke="#99C33A" stroke-width="1.1109" stroke-miterlimit="10" x1="400.009" y1="420.999" x2="647.267" y2="668.258"/>
		
			<line fill="none" stroke="#99C33A" stroke-width="1.1109" stroke-miterlimit="10" x1="648.269" y1="669.737" x2="499.354" y2="818.653"/>
		
			<line fill="none" stroke="#99C33A" stroke-width="1.1109" stroke-miterlimit="10" x1="497.066" y1="820.94" x2="400.729" y2="724.6"/>
		
			<line fill="none" stroke="#99C33A" stroke-width="1.1109" stroke-miterlimit="10" x1="399.529" y1="723.402" x2="453.869" y2="669.062"/>
		
			<line fill="none" stroke="#99C33A" stroke-width="1.1109" stroke-miterlimit="10" x1="453.869" y1="669.062" x2="497.741" y2="712.936"/>
	</g>
	
		<line fill="none" stroke="#99C33A" stroke-width="1.626" stroke-miterlimit="10" x1="399.529" y1="669.737" x2="646.055" y2="423.211"/>
</g>
<path fill="#64788D" d="M303.216,9H97.284C80.559,9,66,24.67,66,44v313c0,19.33,14.559,35,31.284,35h205.932
	C319.941,392,333,376.33,333,357V44C333,24.67,319.941,9,303.216,9z M200,377c-11.598,0-21-9.402-21-21s9.402-21,21-21
	c11.598,0,21,9.402,21,21S211.598,377,200,377z M300,283c0,19.33-12.938,35-29.664,35H129.299C112.573,318,99,302.33,99,283V73
	c0-19.33,13.573-35,30.299-35h141.037C287.062,38,300,53.67,300,73V283z"/>
</svg>
